<?xml version="1.0" encoding="utf-8"?>
<!-- Generator: Adobe Illustrator 13.0.0, SVG Export Plug-In . SVG Version: 6.00 Build 14948 emi)  -->
<?xml-stylesheet type="text/css" href="../style/styleSVG4.css" ?>
<!DOCTYPE svg PUBLIC "-//W3C//DTD SVG 1.1//EN" "http://www.w3.org/Graphics/SVG/1.1/DTD/svg11.dtd">
<svg version="1.1" id="Calque_2" xmlns="http://www.w3.org/2000/svg" xmlns:xlink="http://www.w3.org/1999/xlink" x="0px" y="0px"
	 width="150.269px" height="163.964px" viewBox="0 0 150.269 163.964" enable-background="new 0 0 150.269 163.964"
	 xml:space="preserve" class="svg4">
<!--Papier-->
<path fill="#FFFFFF" stroke="#000000" d="M59.833,113.173v-68.25h4c0,0,1,2.625,2.625,2.75c2.745,0.211,2.125-3,5-3
	c2.75,0,1.375,2.75,4.375,3.125c2.356,0.294,0.501-2.854,3.875-3c2.875-0.125,1.625,2.756,4,2.875
	c2.5,0.125,0.875-3.063,3.625-2.938c2.278,0.104,1.875,3.125,3.688,3.125c2.818,0,1.5-3,4.563-3c1.946,0,1.177,2.868,3.875,2.938
	c2.438,0.063,1.25-3.125,3.625-2.938c2.742,0.216,1.563,2.813,4.25,2.938c1.624,0.076,2.75-3,2.75-3l3.625,0.125l-0.125,68.125
	L59.833,113.173z"/>
<!--Cercle papier-->
<circle id="rondPapier" fill="#B8E2FF" cx="77.146" cy="66.548" r="8.438"/>
<!--$ papier-->
<g>
	<path d="M99.667,71.288v-1.375c-0.688-0.086-1.247-0.241-1.677-0.462c-0.431-0.221-0.803-0.579-1.116-1.073
		c-0.313-0.494-0.495-1.097-0.546-1.811l1.383-0.26c0.107,0.739,0.295,1.281,0.565,1.627c0.387,0.489,0.851,0.761,1.391,0.817
		v-4.377c-0.565-0.107-1.144-0.326-1.734-0.657c-0.438-0.244-0.775-0.583-1.013-1.016c-0.236-0.433-0.354-0.924-0.354-1.474
		c0-0.978,0.346-1.77,1.038-2.376c0.464-0.407,1.151-0.657,2.063-0.749v-0.657h0.81v0.657c0.8,0.076,1.434,0.311,1.902,0.703
		c0.601,0.499,0.963,1.184,1.085,2.055l-1.421,0.214c-0.082-0.54-0.251-0.954-0.509-1.242c-0.257-0.288-0.609-0.478-1.058-0.569
		v3.965c0.692,0.173,1.15,0.308,1.375,0.405c0.428,0.188,0.776,0.418,1.047,0.688c0.27,0.27,0.478,0.591,0.622,0.963
		c0.146,0.372,0.218,0.774,0.218,1.207c0,0.952-0.303,1.747-0.909,2.383c-0.605,0.637-1.39,0.978-2.353,1.024v1.39H99.667z
		 M99.667,59.248c-0.535,0.082-0.957,0.296-1.265,0.642c-0.309,0.346-0.462,0.756-0.462,1.23c0,0.468,0.131,0.861,0.394,1.176
		c0.262,0.316,0.706,0.568,1.333,0.756V59.248z M100.477,68.752c0.535-0.066,0.977-0.298,1.325-0.695
		c0.349-0.397,0.523-0.889,0.523-1.475c0-0.499-0.123-0.9-0.37-1.203c-0.247-0.303-0.74-0.574-1.479-0.813V68.752z"/>
</g>
<line fill="none" stroke="#464C58" x1="68.625" y1="86.778" x2="104.75" y2="86.715"/>
<line fill="none" stroke="#464C58" x1="68.833" y1="94.778" x2="104.958" y2="94.715"/>
<line fill="none" stroke="#464C58" x1="90.875" y1="102.778" x2="104.792" y2="102.715"/>
<!--Deco-->
<text transform="matrix(1 0 0 1 131.6655 118.6421)" font-family="'ArialMT'" font-size="14.5362">$</text>
<text id="dollar" transform="matrix(1 0 0 1 11 58.7358)" font-family="'ArialMT'" font-size="19.8906">$</text>
<circle id="rond1" fill="none" stroke="#000000" cx="16.083" cy="51.381" r="15.583"/>
<circle id="rond2" fill="none" stroke="#000000" cx="123.749" cy="15.381" r="13.25"/>
<circle id="rond3" fill="none" stroke="#000000" cx="66.248" cy="150.214" r="13.25"/>
<text transform="matrix(1 0 0 1 61.9995 14.0464)" font-family="'ArialMT'" font-size="16.3682">£</text>
<text transform="matrix(1 0 0 1 141.1655 59.2134)" font-family="'ArialMT'" font-size="16.3682">£</text>
<text transform="matrix(1 0 0 1 61.9995 156.2134)" font-family="'ArialMT'" font-size="16.3682">£</text>
<text transform="matrix(1 0 0 1 30.2163 101.562)" font-family="'ArialMT'" font-size="15.8043">€</text>
<text transform="matrix(1 0 0 1 119.2163 20.7285)" font-family="'ArialMT'" font-size="15.8043">€</text>
</svg>
