<?xml version="1.0" encoding="utf-8"?>
<!-- Generator: Adobe Illustrator 13.0.0, SVG Export Plug-In . SVG Version: 6.00 Build 14948)  -->
<!DOCTYPE svg PUBLIC "-//W3C//DTD SVG 1.1//EN" "http://www.w3.org/Graphics/SVG/1.1/DTD/svg11.dtd">
<svg version="1.1" id="Calque_2" xmlns="http://www.w3.org/2000/svg" xmlns:xlink="http://www.w3.org/1999/xlink" x="0px" y="0px"
	 width="156.25px" height="156.25px" viewBox="0 0 156.25 156.25" enable-background="new 0 0 156.25 156.25" xml:space="preserve">
<!--Haut montre-->
<rect x="74.208" y="33.458" fill="#FFFFFF" stroke="#000000" width="8.75" height="4.583"/>
<rect x="75.75" y="39.5" fill="#FFFFFF" stroke="#000000" width="5.25" height="10.25"/>
<!--Cercles autour montre-->
<circle fill="none" stroke="#000000" stroke-dasharray="1" cx="78.125" cy="78.125" r="77.625"/>
<circle fill="none" stroke="#000000" stroke-dasharray="1" cx="77.75" cy="79" r="62.5"/>
<circle fill="none" stroke="#000000" stroke-dasharray="1" cx="78.375" cy="78.125" r="47.625"/>
<!--Cercles montre-->
<circle fill="#FFFFFF" stroke="#000000" cx="78.375" cy="77.875" r="32.125"/>
<circle fill="none" stroke="#000000" cx="78.125" cy="77.875" r="29.625"/>
<circle fill="#FFFFFF" stroke="#000000" cx="78.125" cy="78.375" r="3.375"/>
<!--Quart-->
<path fill="#98E296" d="M52,72.25c0,0-0.75-2.917,2.25-8.5C56.104,60.299,60,57.5,60,57.5l16.75,19L52,72.25z"/>
<!--Aiguille-->
<line fill="none" stroke="#000000" x1="62.25" y1="60.25" x2="75.75" y2="75.5"/>
<!--Petite aiguille-->
<line fill="none" stroke="#000000" x1="84.5" y1="92.25" x2="89" y2="89.25"/>
<!--Deco montre-->
<path fill="#FFFFFF" stroke="#000000" d="M88.875,39.625C89,41.75,84.426,42,78.938,42S69.195,41.87,69,39.625
	c-0.25-2.875,4.762-3.25,10.25-3.25S88.734,37.241,88.875,39.625z"/>
<line fill="none" stroke="#000000" x1="70.375" y1="37.5" x2="70.5" y2="41"/>
<line fill="none" stroke="#000000" x1="72.5" y1="36.875" x2="72.542" y2="41.792"/>
<line fill="none" stroke="#000000" x1="74.5" y1="36.625" x2="74.5" y2="41.625"/>
<line fill="none" stroke="#000000" x1="76.5" y1="36.25" x2="76.5" y2="42"/>
<line fill="none" stroke="#000000" x1="78.25" y1="36.25" x2="78.25" y2="41.875"/>
<line fill="none" stroke="#000000" x1="80.25" y1="36.25" x2="80.25" y2="41.75"/>
<line fill="none" stroke="#000000" x1="82.375" y1="36.125" x2="82.375" y2="41.75"/>
<line fill="none" stroke="#000000" x1="84.625" y1="36.875" x2="84.625" y2="41.375"/>
<line fill="none" stroke="#000000" x1="86.375" y1="37.5" x2="86.375" y2="41.542"/>
<!--Petit cercle-->
<circle fill="none" stroke="#000000" cx="88.875" cy="88.625" r="8.625"/>
<circle fill="#FFFFFF" stroke="#000000" cx="89.375" cy="89.125" r="1.625"/>
</svg>
