<?xml version="1.0" encoding="utf-8"?>
<!-- Generator: Adobe Illustrator 13.0.0, SVG Export Plug-In . SVG Version: 6.00 Build 14948 emi)  -->
<?xml-stylesheet type="text/css" href="../style/styleSVG2.css" ?>
<!DOCTYPE svg PUBLIC "-//W3C//DTD SVG 1.1//EN" "http://www.w3.org/Graphics/SVG/1.1/DTD/svg11.dtd">
<svg version="1.1" id="Calque_1" xmlns="http://www.w3.org/2000/svg" xmlns:xlink="http://www.w3.org/1999/xlink" x="0px" y="0px"
	 width="175.5px" height="117.577px" viewBox="0 0 175.5 117.577" enable-background="new 0 0 175.5 117.577" xml:space="preserve" class="svg2">
<!--Bulle smiley-->
<path fill="#E8E8E8" stroke="#000000" d="M128.916,117c-2.334,1.167-12.666-11.333-12.666-11.333l11.332-2.5
	C127.582,103.167,130.813,116.051,128.916,117z"/>
<path fill="#E8E8E8" stroke="#000000" d="M25.75,73.5c2.669,1.001,16-14,16-14L27.25,58C27.25,58,23.75,72.75,25.75,73.5z"/>
<!--Lignes deco-->
<line fill="none" stroke="#1A171B" x1="44.5" y1="0.5" x2="56" y2="0.5"/>
<line fill="none" stroke="#1A171B" x1="121.5" y1="19.5" x2="140.75" y2="19.5"/>
<line fill="none" stroke="#1A171B" x1="107.5" y1="49.75" x2="119" y2="49.75"/>
<line fill="none" stroke="#1A171B" x1="51.375" y1="85.75" x2="62.875" y2="85.75"/>
<line fill="none" stroke="#1A171B" x1="0" y1="70.75" x2="19.25" y2="70.75"/>
<line fill="none" stroke="#1A171B" x1="156.25" y1="95.75" x2="175.5" y2="95.75"/>
<!--Bulle-->
<path fill="#E8E8E8" stroke="#000000" d="M99.75,39.5c0,12.979-9.609,23.5-21.466,23.5H32.465C20.61,63,11,52.479,11,39.5l0,0
	C11,26.521,20.609,16,32.465,16h45.819C90.141,16,99.75,26.521,99.75,39.5L99.75,39.5z"/>
<!--Cercles smiley-->
<circle fill="#FAEBA5" stroke="#69600A" cx="35.5" cy="38.75" r="16"/>
<circle fill="#69600A" cx="30.25" cy="35.438" r="2"/>
<circle fill="#69600A" cx="40.188" cy="35.5" r="2"/>
<!--smile-->
<path fill="#FFFFFF" stroke="#69600A" d="M26.5,41.688l16.938-0.063c0,0,1.122,7.814-8.625,7.563
	C25.188,48.938,26.5,41.688,26.5,41.688z"/>
<!--Bulle-->
<path fill="#E8E8E8" stroke="#000000" d="M139.916,89.667c0,10.31-7.873,18.667-17.584,18.667h-19.498
	c-9.711,0-17.584-8.357-17.584-18.667l0,0C85.25,79.357,93.123,71,102.834,71h19.498C132.043,71,139.916,79.357,139.916,89.667
	L139.916,89.667z"/>
<!--Cercles petite bulle-->
<circle fill="#FFFFFF" stroke="#1A171B" cx="101.75" cy="89.666" r="3.167"/>
<circle fill="#FFFFFF" stroke="#1A171B" cx="112.75" cy="89.666" r="3.167"/>
<circle fill="#FFFFFF" stroke="#1A171B" cx="123.75" cy="89.666" r="3.167"/>
<!--Ligne bulle-->
<line fill="none" stroke="#464C58" x1="60.25" y1="46.688" x2="79.938" y2="46.688"/>
<line fill="none" stroke="#464C58" x1="60.25" y1="38.688" x2="76.25" y2="38.688"/>
<line fill="none" stroke="#464C58" x1="60.25" y1="30.563" x2="80" y2="30.563"/>
</svg>
